<?xml version="1.0" encoding="utf-8"?>
<!-- Generator: Adobe Illustrator 27.9.0, SVG Export Plug-In . SVG Version: 6.00 Build 0)  -->
<!DOCTYPE svg PUBLIC "-//W3C//DTD SVG 1.1//EN" "http://www.w3.org/Graphics/SVG/1.1/DTD/svg11.dtd" [
	<!ENTITY ns_extend "http://ns.adobe.com/Extensibility/1.0/">
	<!ENTITY ns_ai "http://ns.adobe.com/AdobeIllustrator/10.0/">
	<!ENTITY ns_graphs "http://ns.adobe.com/Graphs/1.0/">
	<!ENTITY ns_vars "http://ns.adobe.com/Variables/1.0/">
	<!ENTITY ns_imrep "http://ns.adobe.com/ImageReplacement/1.0/">
	<!ENTITY ns_sfw "http://ns.adobe.com/SaveForWeb/1.0/">
	<!ENTITY ns_custom "http://ns.adobe.com/GenericCustomNamespace/1.0/">
	<!ENTITY ns_adobe_xpath "http://ns.adobe.com/XPath/1.0/">
]>
<svg version="1.1" id="레이어_1" xmlns:x="&ns_extend;" xmlns:i="&ns_ai;" xmlns:graph="&ns_graphs;"
	 xmlns="http://www.w3.org/2000/svg" xmlns:xlink="http://www.w3.org/1999/xlink" x="0px" y="0px" width="152px" height="34.4px"
	 viewBox="0 0 152 34.4" style="enable-background:new 0 0 152 34.4;" xml:space="preserve">
<style type="text/css">
	.st0{fill:#FFFFFF;}
</style>
<metadata>
	<sfw  xmlns="&ns_sfw;">
		<slices></slices>
		<sliceSourceBounds  bottomLeftOrigin="true" height="33.8" width="152" x="0" y="-0.4"></sliceSourceBounds>
	</sfw>
</metadata>
<g>
	<path class="st0" d="M1.4,13.3C3.8,14.5,6,15,8.8,15c3.1,0,4.8-0.7,4.8-1.9c0-3.2-13.4,0.4-13.4-7.1c0-3.5,3-5.5,8.4-5.5
		c3.3,0,6.1,0.7,8.5,2l-1.4,3.2c-2.5-1.1-4.6-1.6-7.2-1.6C5.6,4.2,4,4.8,4,5.9C4,9.1,17.6,5.5,17.6,13c0,3.6-3.2,5.7-8.9,5.7
		c-3.5,0-6.3-0.8-8.7-2.1L1.4,13.3L1.4,13.3z M20.5,15.4l6.2-14.1h7.2L40,15.4v2.8h-4v-1.7l-0.4-1H24.9l-0.4,1v1.7h-4L20.5,15.4
		L20.5,15.4L20.5,15.4z M34.2,12L31.3,5h-2L26.3,12H34.2z M44.3,1.4h6.1l4.5,8.4l4.5-8.4h6.1v16.9h-4v-13l-4.9,9h-3.4l-4.9-9v13h-4
		L44.3,1.4L44.3,1.4L44.3,1.4z M73.2,1.4l4,9.3h2.6l4-9.3h4.4L79.2,22h-4.4l3.4-7.7h-3.7L68.8,1.4L73.2,1.4L73.2,1.4z M88,15.4
		l6.2-14.1h7.2l6.2,14.1v2.8h-4v-1.7l-0.4-1H92.4l-0.4,1v1.7h-4L88,15.4L88,15.4L88,15.4z M101.7,12L98.7,5h-2L93.8,12H101.7z
		 M111.8,1.4h4l9.5,11v-11h4v16.9h-4l-9.5-11v11h-4V1.4L111.8,1.4z M143.3,18.6c-5.9,0-10-3.6-10-8.9s4.1-8.8,10-8.8
		c2.5,0,5.3,0.7,8.1,1.9l-1.5,3.4c-2.5-1-4.8-1.6-6.6-1.6c-3.6,0-6,2.1-6,5.1s2.4,5.2,6,5.2c1.9,0,3.6-0.3,4.7-0.8v-2.1h-4.6V8.7
		h8.6v7.9C150.1,17.8,146.5,18.6,143.3,18.6L143.3,18.6z"/>
	<g>
		<path class="st0" d="M26,33.5l0.6-1.3c1.1,0.5,2.1,0.8,3.4,0.8c1.5,0,2.4-0.4,2.4-1c0-1.7-6.3,0-6.3-3.2c0-1.5,1.4-2.4,3.8-2.4
			c1.4,0,2.6,0.3,3.7,0.8L33,28.4c-0.9-0.4-1.9-0.7-3.2-0.7c-1.4,0-2.2,0.3-2.2,0.9c0,1.6,6.3-0.1,6.3,3.2c0,1.6-1.4,2.5-4,2.5
			C28.4,34.4,27.1,34.1,26,33.5z"/>
		<path class="st0" d="M39.1,26.5h1.5v7.7h-1.5V26.5z"/>
		<path class="st0" d="M46.3,26.5h1.5l4.8,5.4v-5.4h1.5v7.7h-1.5l-4.8-5.4v5.4h-1.5V26.5z"/>
		<path class="st0" d="M58.7,30.3c0-2.4,1.9-4.1,4.5-4.1c1.1,0,2.4,0.3,3.5,0.8l-0.6,1.3c-1.1-0.4-2.1-0.7-2.9-0.7
			c-1.7,0-2.9,1-2.9,2.6c0,1.5,1.2,2.6,2.9,2.6c0.8,0,1.9-0.2,2.9-0.7l0.6,1.3c-1.1,0.5-2.4,0.8-3.5,0.8
			C60.6,34.4,58.7,32.7,58.7,30.3z"/>
		<path class="st0" d="M71.2,26.5h6.9v1.4h-5.3v1.7h3.6V31h-3.6v1.8h5.4v1.4h-7V26.5z"/>
		<path class="st0" d="M86.3,32.8h2.1v-4.7l-1.9,1.1v-1.6l2.2-1.2H90v6.4H92v1.4h-5.7V32.8z"/>
		<path class="st0" d="M103.4,30.3c0,2.6-1.5,4.1-3.9,4.1c-1,0-1.9-0.2-2.8-0.7l0.5-1.2c0.7,0.3,1.6,0.5,2.3,0.5
			c1.5,0,2.2-0.8,2.4-2.4c-0.6,0.6-1.5,0.9-2.5,0.9c-1.8,0-3-1-3-2.6c0-1.6,1.3-2.7,3.3-2.7C102.1,26.3,103.4,27.7,103.4,30.3z
			 M99.7,30.3c0.9,0,1.6-0.3,2.1-0.9c-0.2-1.1-0.9-1.7-2.1-1.7c-1.2,0-1.8,0.5-1.8,1.3C97.9,29.8,98.6,30.3,99.7,30.3z"/>
		<path class="st0" d="M107.9,32.8l3.8-2.5c0.7-0.5,1-1,1-1.5c0-0.7-0.7-1.2-1.8-1.2c-0.7,0-1.4,0.2-2.5,0.7l-0.5-1.2
			c1.2-0.6,2.1-0.8,3.1-0.8c2,0,3.3,1,3.3,2.5c0,1-0.5,1.7-1.7,2.5l-2.2,1.5h3.9v1.4h-6.4V32.8z"/>
		<path class="st0" d="M122.8,32.7h-4.6v-1.3l3.7-4.9h2.5v4.9h1.6v1.3h-1.6v1.5h-1.5V32.7z M122.8,31.4v-3.5h-0.3l-2.6,3.5H122.8z"
			/>
	</g>
</g>
</svg>
